<svg xmlns="http://www.w3.org/2000/svg" viewBox="0 0 48 48">
  <path fill="#fbc02d" d="M43.6 20.5h-1.6V20H24v8h11.3C33.8 32.5 29.3 36 24 36c-6.6 0-12-5.4-12-12s5.4-12 12-12c3.1 0 5.9 1.2 8.1 3.1l5.7-5.7C34.2 6.5 29.4 4 24 4 12.9 4 4 12.9 4 24s8.9 20 20 20c11 0 19.8-8.3 20-19.3.1-.8.1-1.5.1-2.2 0-1.3-.1-2.5-.4-3.7z"></path>
  <path fill="#e53935" d="M6.3 14.7l6.6 4.9C14.3 16.3 18.8 14 24 14c3.1 0 5.9 1.2 8.1 3.1l5.7-5.7C34.2 6.5 29.4 4 24 4 16.3 4 9.4 8.5 6.3 14.7z"></path>
  <path fill="#4caf50" d="M24 44c5.1 0 9.9-1.9 13.5-5l-6.2-5.1C29.6 35.9 26.9 37 24 37c-5.3 0-9.8-3.5-11.3-8.3l-6.5 5c3.1 6.3 9.9 10.3 17.8 10.3z"></path>
  <path fill="#1565c0" d="M43.6 20.5h-1.6V20H24v8h11.3c-1.4 3.7-4.8 6.5-9.3 6.5-5.3 0-9.8-3.5-11.3-8.3l-6.5 5C10.3 38.1 16.6 44 24 44c11 0 19.8-8.3 20-19.3.1-.8.1-1.5.1-2.2 0-1.3-.1-2.5-.4-3.7z"></path>
</svg>
